 <svg
  width="28"
  height="28"
  viewBox="0 0 28 28"
  fill="none"
  xmlns="http://www.w3.org/2000/svg"
>
  <path
    d="M24.1172 18.3859L24.1139 18.3832C23.5709 17.8812 22.8681 17.763 22.3552 17.6766L22.3174 17.6701C21.8225 17.5886 21.7443 17.5334 21.5201 17.3327C21.3866 17.214 21.2275 17.0237 21.2275 16.7891C21.2275 16.5545 21.3866 16.3641 21.5195 16.2455L23.1755 14.776C24.593 13.5231 25.3739 11.8415 25.3739 10.0406C25.3739 8.23977 24.5946 6.55813 23.1755 5.30469C21.2127 3.57711 18.527 2.625 15.6084 2.625C12.2347 2.625 8.85938 3.90305 6.34375 6.13102C3.94461 8.25125 2.625 11.0917 2.625 14.1285C2.625 17.1653 3.94625 20.0058 6.34375 22.1255C7.5332 23.1777 8.94086 23.9947 10.5284 24.5547C12.0554 25.0903 13.661 25.3675 15.2791 25.375H15.3781C18.7141 25.375 21.8909 24.2501 24.0948 22.2906C24.6252 21.8225 24.9233 21.1515 24.9337 20.4006C24.9452 19.6257 24.64 18.8721 24.1172 18.3859ZM6.125 11.375C6.125 11.0289 6.22764 10.6905 6.41993 10.4028C6.61222 10.115 6.88553 9.89066 7.2053 9.75821C7.52508 9.62576 7.87694 9.5911 8.21641 9.65863C8.55588 9.72615 8.86769 9.89282 9.11244 10.1376C9.35718 10.3823 9.52385 10.6941 9.59137 11.0336C9.6589 11.3731 9.62424 11.7249 9.49179 12.0447C9.35934 12.3645 9.13503 12.6378 8.84725 12.8301C8.55946 13.0224 8.22112 13.125 7.875 13.125C7.41087 13.125 6.96575 12.9406 6.63756 12.6124C6.30937 12.2842 6.125 11.8391 6.125 11.375ZM8.3125 18.7578C7.96638 18.7578 7.62804 18.6552 7.34025 18.4629C7.05247 18.2706 6.82816 17.9973 6.69571 17.6775C6.56326 17.3577 6.5286 17.0059 6.59613 16.6664C6.66365 16.3269 6.83032 16.0151 7.07506 15.7704C7.31981 15.5256 7.63163 15.359 7.97109 15.2914C8.31056 15.2239 8.66243 15.2586 8.9822 15.391C9.30197 15.5235 9.57528 15.7478 9.76757 16.0356C9.95986 16.3234 10.0625 16.6617 10.0625 17.0078C10.0625 17.4719 9.87813 17.9171 9.54994 18.2452C9.22175 18.5734 8.77663 18.7578 8.3125 18.7578ZM10.5 7.875C10.5 7.52888 10.6026 7.19054 10.7949 6.90275C10.9872 6.61497 11.2605 6.39066 11.5803 6.25821C11.9001 6.12576 12.2519 6.0911 12.5914 6.15863C12.9309 6.22615 13.2427 6.39282 13.4874 6.63756C13.7322 6.88231 13.8989 7.19413 13.9664 7.53359C14.0339 7.87306 13.9992 8.22493 13.8668 8.5447C13.7343 8.86447 13.51 9.13778 13.2222 9.33007C12.9345 9.52236 12.5961 9.625 12.25 9.625C11.7859 9.625 11.3408 9.44063 11.0126 9.11244C10.6844 8.78425 10.5 8.33913 10.5 7.875ZM14 22.6953C13.4808 22.6953 12.9733 22.5414 12.5416 22.2529C12.11 21.9645 11.7735 21.5545 11.5748 21.0749C11.3761 20.5952 11.3242 20.0674 11.4254 19.5582C11.5267 19.049 11.7767 18.5813 12.1438 18.2142C12.511 17.847 12.9787 17.597 13.4879 17.4958C13.9971 17.3945 14.5249 17.4464 15.0045 17.6451C15.4842 17.8438 15.8942 18.1803 16.1826 18.6119C16.471 19.0436 16.625 19.5511 16.625 20.0703C16.625 20.7665 16.3484 21.4342 15.8562 21.9265C15.3639 22.4188 14.6962 22.6953 14 22.6953ZM17.9375 9.625C17.5914 9.625 17.253 9.52236 16.9653 9.33007C16.6775 9.13778 16.4532 8.86447 16.3207 8.5447C16.1883 8.22493 16.1536 7.87306 16.2211 7.53359C16.2887 7.19413 16.4553 6.88231 16.7001 6.63756C16.9448 6.39282 17.2566 6.22615 17.5961 6.15863C17.9356 6.0911 18.2874 6.12576 18.6072 6.25821C18.927 6.39066 19.2003 6.61497 19.3926 6.90275C19.5849 7.19054 19.6875 7.52888 19.6875 7.875C19.6875 8.33913 19.5031 8.78425 19.1749 9.11244C18.8467 9.44063 18.4016 9.625 17.9375 9.625Z"
    fill="black"
  />
</svg>