<svg width="156" height="156" viewBox="0 0 156 156" fill="none" xmlns="http://www.w3.org/2000/svg">
<circle cx="60" cy="60.0001" r="96" fill="#F2F2F7"/>
<path d="M90.0938 42.8437L90.2625 42.7312C89.925 42.1125 89.4188 41.55 88.9125 41.2687L61.7437 25.6312C61.2937 25.35 60.675 25.2375 60 25.2375C59.325 25.2375 58.7063 25.4062 58.2563 25.6312L31.2562 41.325C30.3 41.8875 29.625 43.2937 29.625 44.3625V75.6937C29.625 76.3125 29.7375 76.9875 30.1312 77.6062L30.0187 77.6625C30.3 78.1125 30.6938 78.5062 31.0875 78.7312L58.2 94.425C58.65 94.7062 59.2688 94.8187 59.9438 94.8187C60.6188 94.8187 61.2375 94.65 61.6875 94.425L88.6875 78.7312C89.6437 78.1687 90.3188 76.7625 90.3188 75.6937V44.3062C90.375 43.8562 90.3187 43.35 90.0938 42.8437ZM60 73.7812C65.1188 73.7812 69.6188 70.9687 71.9813 66.8062L79.2375 71.0812C75.4125 77.7187 68.2125 82.2187 60 82.2187C47.7375 82.2187 37.7812 72.2625 37.7812 60C37.7812 47.7375 47.7375 37.7812 60 37.7812C68.2687 37.7812 75.4688 42.3375 79.2938 49.0312L71.9813 53.25C69.6188 49.0312 65.1188 46.2187 60 46.2187C52.4062 46.2187 46.2188 52.4062 46.2188 60C46.2188 67.5937 52.4062 73.7812 60 73.7812Z" fill="#03599C"/>
</svg>
