<svg width="29" height="28" viewBox="0 0 29 28" fill="none" xmlns="http://www.w3.org/2000/svg">
<path d="M3.80546 21.2827C3.80546 21.2865 3.80546 21.2937 3.80109 21.3035C3.80273 21.2969 3.80382 21.2898 3.80546 21.2827Z" fill="black"/>
<path d="M24.5572 22.1813C24.3771 22.1774 24.1993 22.1403 24.0327 22.0719L20.9276 20.971L20.9046 20.9617C20.8369 20.9335 20.7641 20.9194 20.6908 20.9202C20.6232 20.9202 20.5561 20.9325 20.4928 20.9563C20.4174 20.9847 19.7376 21.2401 19.0245 21.4359C18.6378 21.542 17.292 21.8881 16.2119 21.8881C13.4513 21.8881 10.87 20.8272 8.94446 18.9006C8.00379 17.9657 7.25789 16.8535 6.74995 15.6283C6.24201 14.4032 5.98212 13.0895 5.98532 11.7633C5.9853 11.0722 6.05974 10.3832 6.20735 9.70813C6.68805 7.48672 7.96118 5.46602 9.79212 4.02063C11.6703 2.54737 13.9889 1.74772 16.3759 1.75C19.2312 1.75 21.8917 2.84375 23.8681 4.82235C25.7363 6.69649 26.76 9.16071 26.7518 11.7606C26.7502 13.6924 26.1733 15.5801 25.0948 17.1828L25.0844 17.1981L25.0439 17.2528C25.0346 17.2654 25.0253 17.2774 25.0166 17.29L25.0084 17.3048C24.9866 17.3418 24.9669 17.3799 24.9493 17.4191L25.8101 20.4783C25.8481 20.6045 25.8688 20.7353 25.8713 20.8671C25.8716 21.0398 25.8377 21.2107 25.7717 21.3703C25.7058 21.5298 25.609 21.6748 25.4869 21.7968C25.3648 21.9189 25.2199 22.0157 25.0604 22.0817C24.9008 22.1476 24.7298 22.1815 24.5572 22.1813Z" fill="black"/>
<path d="M16.8991 23.2635C16.8426 23.1536 16.7631 23.0572 16.666 22.9807C16.5689 22.9043 16.4565 22.8497 16.3364 22.8206C16.0203 22.7369 15.6517 22.7511 15.3701 22.7303C12.7108 22.5454 10.2084 21.4042 8.32523 19.5174C6.65111 17.8527 5.56309 15.6891 5.225 13.3525C5.14843 12.8198 5.14843 12.6875 5.14843 12.6875C5.1484 12.5098 5.09425 12.3363 4.9932 12.1901C4.89214 12.0439 4.74896 11.932 4.58272 11.8692C4.41647 11.8063 4.23504 11.7956 4.06256 11.8385C3.89008 11.8813 3.73473 11.9756 3.61718 12.1089C3.61718 12.1089 3.18625 12.5781 2.98281 13.049C2.41224 14.3636 2.16892 15.797 2.27369 17.2262C2.37846 18.6555 2.8282 20.038 3.58437 21.2554C3.72656 21.4922 3.72656 21.6016 3.69484 21.8477C3.54554 22.6193 3.28414 23.9805 3.14797 24.6865C3.10288 24.9155 3.11965 25.1523 3.19655 25.3726C3.27345 25.5929 3.4077 25.7888 3.58547 25.9399L3.61062 25.9613C3.84578 26.148 4.13719 26.2498 4.4375 26.25C4.60641 26.2502 4.77368 26.2169 4.92968 26.1521L7.85601 25.0228C7.95677 24.9845 8.06807 24.9845 8.16883 25.0228C9.32109 25.4516 10.5204 25.6791 11.6568 25.6791C13.0727 25.6804 14.4715 25.3693 15.7534 24.768C16.052 24.628 16.5191 24.476 16.7925 24.1599C16.896 24.0373 16.9612 23.887 16.9802 23.7277C16.9991 23.5684 16.971 23.407 16.8991 23.2635Z" fill="black"/>
</svg>
