<svg
  width="29"
  height="28"
  viewBox="0 0 29 28"
  fill="none"
  xmlns="http://www.w3.org/2000/svg"
>
  <path
    d="M9.25001 21.2735C8.97188 21.2737 8.70319 21.1726 8.49422 20.9891L1.49422 14.8641C1.37111 14.7563 1.27245 14.6234 1.20486 14.4744C1.13726 14.3254 1.10229 14.1636 1.10229 14C1.10229 13.8364 1.13726 13.6746 1.20486 13.5256C1.27245 13.3766 1.37111 13.2437 1.49422 13.136L8.49422 7.01095C8.72346 6.81036 9.02299 6.70905 9.32693 6.72931C9.63086 6.74956 9.9143 6.88972 10.1149 7.11896C10.3155 7.3482 10.4168 7.64773 10.3965 7.95166C10.3763 8.25559 10.2361 8.53903 10.0069 8.73962L3.99399 14L10.0063 19.2604C10.1823 19.4142 10.3071 19.6181 10.3642 19.8448C10.4212 20.0715 10.4077 20.3101 10.3255 20.5289C10.2433 20.7477 10.0963 20.9362 9.90412 21.0693C9.71194 21.2023 9.48374 21.2735 9.25001 21.2735Z"
    fill="black"
  />
  <path
    d="M19.7499 21.2735C19.5161 21.2737 19.2879 21.2025 19.0956 21.0695C18.9033 20.9365 18.7562 20.748 18.674 20.5292C18.5917 20.3104 18.5782 20.0716 18.6352 19.8449C18.6922 19.6182 18.817 19.4143 18.993 19.2604L25.0059 14L18.9936 8.73962C18.7644 8.53903 18.6242 8.25559 18.6039 7.95166C18.5837 7.64773 18.685 7.3482 18.8856 7.11896C19.0862 6.88972 19.3696 6.74956 19.6736 6.72931C19.9775 6.70905 20.277 6.81036 20.5063 7.01095L27.5063 13.136C27.6294 13.2437 27.728 13.3766 27.7956 13.5256C27.8632 13.6746 27.8982 13.8364 27.8982 14C27.8982 14.1636 27.8632 14.3254 27.7956 14.4744C27.728 14.6234 27.6294 14.7563 27.5063 14.8641L20.5063 20.9891C20.2972 21.1728 20.0283 21.274 19.7499 21.2735Z"
    fill="black"
  />
</svg>