<svg
width="28"
height="28"
viewBox="0 0 28 28"
fill="none"
xmlns="http://www.w3.org/2000/svg"
>
<g clip-path="url(#clip0)">
  <path
    d="M27.816 8.13695C27.816 5.67602 26.0058 3.69633 23.7691 3.69633C20.7394 3.55469 17.6496 3.5 14.4919 3.5H13.5076C10.3576 3.5 7.26225 3.55469 4.23257 3.69687C2.00132 3.69687 0.191159 5.6875 0.191159 8.14844C0.0544402 10.0948 -0.00352853 12.0416 -0.000247275 13.9885C-0.00571603 15.9354 0.0562632 17.8841 0.18569 19.8346C0.18569 22.2955 1.99585 24.2916 4.2271 24.2916C7.40991 24.4393 10.6748 24.5049 13.9943 24.4995C17.3193 24.5104 20.575 24.4411 23.7615 24.2916C25.9982 24.2916 27.8083 22.2955 27.8083 19.8346C27.9396 17.8823 27.9998 15.9354 27.9943 13.983C28.0067 12.0362 27.9473 10.0875 27.816 8.13695ZM11.3201 19.3534V8.60727L19.2498 13.9776L11.3201 19.3534Z"
    fill="black"
  />
</g>
<defs>
  <clipPath id="clip0">
    <path d="M0 0H28V28H0V0Z" fill="white" />
  </clipPath>
</defs>
</svg>