<svg
  width="29"
  height="28"
  viewBox="0 0 29 28"
  fill="none"
  xmlns="http://www.w3.org/2000/svg"
>
  <path
    d="M6.1875 8.75C5.5818 8.75 4.98969 8.57039 4.48607 8.23388C3.98244 7.89737 3.58991 7.41907 3.35812 6.85947C3.12633 6.29987 3.06568 5.6841 3.18385 5.09004C3.30201 4.49597 3.59369 3.95029 4.02199 3.52199C4.45029 3.09369 4.99597 2.80201 5.59004 2.68385C6.1841 2.56568 6.79987 2.62633 7.35947 2.85812C7.91907 3.08991 8.39737 3.48244 8.73388 3.98607C9.07039 4.48969 9.25 5.0818 9.25 5.6875C9.24913 6.49946 8.9262 7.27792 8.35206 7.85206C7.77792 8.4262 6.99946 8.74913 6.1875 8.75Z"
    fill="#1A68FA"
  />
  <path
    d="M14.5 8.75C13.8943 8.75 13.3022 8.57039 12.7986 8.23388C12.2949 7.89737 11.9024 7.41907 11.6706 6.85947C11.4388 6.29987 11.3782 5.6841 11.4963 5.09004C11.6145 4.49597 11.9062 3.95029 12.3345 3.52199C12.7628 3.09369 13.3085 2.80201 13.9025 2.68385C14.4966 2.56568 15.1124 2.62633 15.672 2.85812C16.2316 3.08991 16.7099 3.48244 17.0464 3.98607C17.3829 4.48969 17.5625 5.0818 17.5625 5.6875C17.5616 6.49946 17.2387 7.27792 16.6646 7.85206C16.0904 8.4262 15.312 8.74913 14.5 8.75Z"
    fill="#1A68FA"
  />
  <path
    d="M22.8125 8.75C22.2068 8.75 21.6147 8.57039 21.1111 8.23388C20.6074 7.89737 20.2149 7.41907 19.9831 6.85947C19.7513 6.29987 19.6907 5.6841 19.8088 5.09004C19.927 4.49597 20.2187 3.95029 20.647 3.52199C21.0753 3.09369 21.621 2.80201 22.215 2.68385C22.8091 2.56568 23.4249 2.62633 23.9845 2.85812C24.5441 3.08991 25.0224 3.48244 25.3589 3.98607C25.6954 4.48969 25.875 5.0818 25.875 5.6875C25.8741 6.49946 25.5512 7.27792 24.9771 7.85206C24.4029 8.4262 23.6245 8.74913 22.8125 8.75Z"
    fill="#1A68FA"
  />
  <path
    d="M6.1875 17.0625C5.5818 17.0625 4.98969 16.8829 4.48607 16.5464C3.98244 16.2099 3.58991 15.7316 3.35812 15.172C3.12633 14.6124 3.06568 13.9966 3.18385 13.4025C3.30201 12.8085 3.59369 12.2628 4.02199 11.8345C4.45029 11.4062 4.99597 11.1145 5.59004 10.9963C6.1841 10.8782 6.79987 10.9388 7.35947 11.1706C7.91907 11.4024 8.39737 11.7949 8.73388 12.2986C9.07039 12.8022 9.25 13.3943 9.25 14C9.24913 14.812 8.9262 15.5904 8.35206 16.1646C7.77792 16.7387 6.99946 17.0616 6.1875 17.0625Z"
    fill="#1A68FA"
  />
  <path
    d="M14.5 17.0625C13.8943 17.0625 13.3022 16.8829 12.7986 16.5464C12.2949 16.2099 11.9024 15.7316 11.6706 15.172C11.4388 14.6124 11.3782 13.9966 11.4963 13.4025C11.6145 12.8085 11.9062 12.2628 12.3345 11.8345C12.7628 11.4062 13.3085 11.1145 13.9025 10.9963C14.4966 10.8782 15.1124 10.9388 15.672 11.1706C16.2316 11.4024 16.7099 11.7949 17.0464 12.2986C17.3829 12.8022 17.5625 13.3943 17.5625 14C17.5616 14.812 17.2387 15.5904 16.6646 16.1646C16.0904 16.7387 15.312 17.0616 14.5 17.0625Z"
    fill="#1A68FA"
  />
  <path
    d="M22.8125 17.0625C22.2068 17.0625 21.6147 16.8829 21.1111 16.5464C20.6074 16.2099 20.2149 15.7316 19.9831 15.172C19.7513 14.6124 19.6907 13.9966 19.8088 13.4025C19.927 12.8085 20.2187 12.2628 20.647 11.8345C21.0753 11.4062 21.621 11.1145 22.215 10.9963C22.8091 10.8782 23.4249 10.9388 23.9845 11.1706C24.5441 11.4024 25.0224 11.7949 25.3589 12.2986C25.6954 12.8022 25.875 13.3943 25.875 14C25.8741 14.812 25.5512 15.5904 24.9771 16.1646C24.4029 16.7387 23.6245 17.0616 22.8125 17.0625Z"
    fill="#1A68FA"
  />
  <path
    d="M6.1875 25.375C5.5818 25.375 4.98969 25.1954 4.48607 24.8589C3.98244 24.5224 3.58991 24.0441 3.35812 23.4845C3.12633 22.9249 3.06568 22.3091 3.18385 21.715C3.30201 21.121 3.59369 20.5753 4.02199 20.147C4.45029 19.7187 4.99597 19.427 5.59004 19.3088C6.1841 19.1907 6.79987 19.2513 7.35947 19.4831C7.91907 19.7149 8.39737 20.1074 8.73388 20.6111C9.07039 21.1147 9.25 21.7068 9.25 22.3125C9.24913 23.1245 8.9262 23.9029 8.35206 24.4771C7.77792 25.0512 6.99946 25.3741 6.1875 25.375Z"
    fill="#1A68FA"
  />
  <path
    d="M14.5 25.375C13.8943 25.375 13.3022 25.1954 12.7986 24.8589C12.2949 24.5224 11.9024 24.0441 11.6706 23.4845C11.4388 22.9249 11.3782 22.3091 11.4963 21.715C11.6145 21.121 11.9062 20.5753 12.3345 20.147C12.7628 19.7187 13.3085 19.427 13.9025 19.3088C14.4966 19.1907 15.1124 19.2513 15.672 19.4831C16.2316 19.7149 16.7099 20.1074 17.0464 20.6111C17.3829 21.1147 17.5625 21.7068 17.5625 22.3125C17.5616 23.1245 17.2387 23.9029 16.6646 24.4771C16.0904 25.0512 15.312 25.3741 14.5 25.375Z"
    fill="#1A68FA"
  />
  <path
    d="M22.8125 25.375C22.2068 25.375 21.6147 25.1954 21.1111 24.8589C20.6074 24.5224 20.2149 24.0441 19.9831 23.4845C19.7513 22.9249 19.6907 22.3091 19.8088 21.715C19.927 21.121 20.2187 20.5753 20.647 20.147C21.0753 19.7187 21.621 19.427 22.215 19.3088C22.8091 19.1907 23.4249 19.2513 23.9845 19.4831C24.5441 19.7149 25.0224 20.1074 25.3589 20.6111C25.6954 21.1147 25.875 21.7068 25.875 22.3125C25.8741 23.1245 25.5512 23.9029 24.9771 24.4771C24.4029 25.0512 23.6245 25.3741 22.8125 25.375Z"
    fill="#1A68FA"
  />
</svg>