<svg width="156" height="156" viewBox="0 0 156 156" fill="none" xmlns="http://www.w3.org/2000/svg">
<circle cx="60" cy="60.0001" r="96" fill="#F2F2F7"/>
<path d="M29.0805 25.125L34.7083 88.1773L59.9623 95.1529L85.2861 88.1852L90.9195 25.125H29.0805ZM79.2139 40.0532L78.8612 44.0874L78.7059 45.9375H49.0819L49.7889 53.8125H78.0017L77.8127 55.7649L75.9941 76.0819L75.8602 77.3587L60 81.7176V81.7187L59.9809 81.7288L44.1313 77.5534L43.0552 65.625H50.8262L51.3769 71.7669L59.9758 74.0625H60V73.7554L68.6372 71.5757L69.5394 61.6875H42.7093L40.8064 40.2467L40.6213 38.0625H79.3995L79.2139 40.0532Z" fill="#E44D26"/>
</svg>
