<svg width="156" height="156" viewBox="0 0 156 156" fill="none" xmlns="http://www.w3.org/2000/svg">
<circle cx="60" cy="60.0001" r="96" fill="#F2F2F7"/>
<path d="M24.792 24.792H95.208V95.2086H24.792V24.792Z" fill="#F0DB4F"/>
<path d="M89.4452 78.414C88.9294 75.2016 86.8346 72.5033 80.6297 69.9872C78.4742 68.9966 76.0712 68.2873 75.3551 66.6538C75.1009 65.7032 75.0671 65.1677 75.228 64.5923C75.6898 62.7248 77.919 62.1426 79.6858 62.6781C80.8238 63.0594 81.9009 63.9364 82.5506 65.3353C85.5893 63.3677 85.5831 63.3806 87.7048 62.0284C86.928 60.8241 86.5134 60.2683 86.0049 59.7531C84.1774 57.7118 81.6872 56.6604 77.7047 56.7409L75.6302 57.0092C73.6423 57.5115 71.7478 58.5549 70.6369 59.9539C67.3035 63.7361 68.2541 70.3556 72.3103 73.0798C76.3063 76.0791 82.1766 76.7614 82.9264 79.566C83.6559 82.9995 80.403 84.111 77.1698 83.7161C74.787 83.2206 73.4618 82.0095 72.0291 79.8073C69.3921 81.3334 69.3921 81.3334 66.6808 82.8926C67.3238 84.2983 67.9993 84.9345 69.0771 86.1523C74.1778 91.3262 86.9421 91.0719 89.2314 83.2408C89.3243 82.9719 89.9408 81.1787 89.4452 78.414ZM63.0724 57.1554H56.4861L56.4591 74.1834C56.4591 77.8048 56.6464 81.1247 56.0574 82.1423C55.0939 84.1436 52.5969 83.8956 51.459 83.5074C50.3008 82.9382 49.7119 82.1288 49.0296 80.9846C48.8423 80.6561 48.7016 80.4019 48.6544 80.3822L43.2994 83.6616C44.1898 85.4891 45.5016 87.0754 47.1818 88.1059C49.6916 89.6123 53.0649 90.0741 56.5929 89.2641C58.8891 88.5953 60.8702 87.2098 61.9074 85.101C63.4071 82.3363 63.0853 78.99 63.0718 75.2888C63.1056 69.2503 63.0724 63.213 63.0724 57.1554Z" fill="#323330"/>
</svg>
