<svg width="156" height="156" viewBox="0 0 156 156" fill="none" xmlns="http://www.w3.org/2000/svg">
<circle cx="60" cy="60.0001" r="96" fill="#F2F2F7"/>
<path fill-rule="evenodd" clip-rule="evenodd" d="M74.9012 56.2211C74.693 53.5268 74.0597 50.9286 73.1788 48.3832C71.354 42.6997 68.4257 37.6699 64.3009 33.342C63.258 32.2474 62.0981 31.2444 61.3708 29.8821C60.9107 29.0203 60.4725 28.1467 60.0242 27.2782L59.7401 26.5622C59.6923 26.7264 59.6619 26.7849 59.6602 26.844C59.6237 28.2598 58.8215 29.22 57.8225 30.1161C56.6992 31.1246 55.6535 32.2192 54.5741 33.2762C53.4671 34.7319 52.3607 36.1877 51.2548 37.6429C50.3593 39.2882 49.4649 40.9335 48.5705 42.5788L46.7762 47.4259L46.7222 47.5012C45.7344 50.7457 45.2473 54.0814 45.0077 57.4507C44.9177 58.7169 45.02 60.0017 45.0915 61.2746C45.1933 63.0943 45.5094 64.8831 45.9836 66.6437C47.706 73.0404 51.2014 78.3465 55.9798 82.8544C56.868 83.6919 57.7792 84.4536 58.7062 85.2506C58.8649 84.7078 58.9914 84.165 59.1354 83.6222C59.2794 83.0816 59.4251 82.5439 59.5224 82.0016C59.4245 82.5439 59.3149 83.0816 59.2063 83.6222L58.7417 85.2506L59.1568 86.6574L59.5415 88.8422L59.7249 91.122C59.7232 91.5849 59.7047 92.049 59.7328 92.5114C59.7395 92.6295 59.8948 92.7386 59.9814 92.8522L60.7554 93.1239L61.562 93.4378L61.4237 91.4111L61.4175 89.4154L61.6959 86.3751L61.8979 85.713L62.4755 84.6892C63.1888 84.1155 63.9544 83.5946 64.604 82.9562C65.7797 81.8008 66.9525 80.6308 68.0044 79.3657C69.3695 77.7249 70.544 75.9339 71.4868 74.013C72.1179 72.7283 72.7119 71.4176 73.2035 70.0749C73.6367 68.8914 73.905 67.6478 74.2464 66.4305C74.2768 66.3428 74.3173 66.2567 74.3364 66.1672C75.0418 62.8817 75.1605 59.5629 74.9012 56.2211ZM61.6267 83.9946L61.1739 83.0029L61.6267 83.9946L62.2922 84.5627L61.6267 83.9946Z" fill="#4FAA41"/>
</svg>
