<svg
  width="28"
  height="28"
  viewBox="0 0 28 28"
  fill="none"
  xmlns="http://www.w3.org/2000/svg"
>
  <path
    d="M22.3125 6.125H5.79688C4.95564 6.125 4.14886 6.45918 3.55402 7.05402C2.95918 7.64886 2.625 8.45564 2.625 9.29688V17.9375C2.625 18.7497 2.94766 19.5287 3.52199 20.103C4.09632 20.6773 4.87527 21 5.6875 21H6.125V23.17C6.125 23.7548 6.35731 24.3157 6.77083 24.7292C7.18435 25.1427 7.7452 25.375 8.33 25.375H19.67C20.2548 25.375 20.8157 25.1427 21.2292 24.7292C21.6427 24.3157 21.875 23.7548 21.875 23.17V21H22.3125C23.1247 21 23.9037 20.6773 24.478 20.103C25.0523 19.5287 25.375 18.7497 25.375 17.9375V9.1875C25.375 8.37527 25.0523 7.59632 24.478 7.02199C23.9037 6.44766 23.1247 6.125 22.3125 6.125ZM20.125 23.17C20.1246 23.2905 20.0765 23.406 19.9913 23.4913C19.906 23.5765 19.7905 23.6246 19.67 23.625H8.33C8.20946 23.6246 8.09398 23.5765 8.00874 23.4913C7.92351 23.406 7.87543 23.2905 7.875 23.17V14.455C7.87543 14.3345 7.92351 14.219 8.00874 14.1337C8.09398 14.0485 8.20946 14.0004 8.33 14H19.67C19.7905 14.0004 19.906 14.0485 19.9913 14.1337C20.0765 14.219 20.1246 14.3345 20.125 14.455V23.17ZM21.5469 11.3706C21.2792 11.3921 21.0113 11.331 20.7795 11.1955C20.5476 11.06 20.3629 10.8566 20.2502 10.6128C20.1376 10.369 20.1025 10.0965 20.1496 9.83215C20.1967 9.56775 20.3237 9.32417 20.5136 9.13427C20.7035 8.94437 20.9471 8.81729 21.2115 8.77019C21.4759 8.72309 21.7484 8.75823 21.9922 8.87086C22.236 8.9835 22.4394 9.16822 22.5749 9.40008C22.7104 9.63195 22.7715 9.8998 22.75 10.1675C22.725 10.4783 22.5902 10.77 22.3698 10.9904C22.1494 11.2109 21.8576 11.3456 21.5469 11.3706Z"
    fill="black"
  />
  <path
    d="M18.8124 2.625H9.18741C8.45132 2.6261 7.74017 2.89185 7.18376 3.37377C6.62736 3.85568 6.2628 4.52161 6.15663 5.25H21.8432C21.737 4.52161 21.3725 3.85568 20.8161 3.37377C20.2597 2.89185 19.5485 2.6261 18.8124 2.625Z"
    fill="black"
  />
</svg>